<?xml version="1.0" standalone="no"?>
<!DOCTYPE svg PUBLIC "-//W3C//DTD SVG 20010904//EN"
 "http://www.w3.org/TR/2001/REC-SVG-20010904/DTD/svg10.dtd">
<svg version="1.0" xmlns="http://www.w3.org/2000/svg"
 width="24.000000pt" height="24.000000pt" viewBox="0 0 24.000000 24.000000"
 preserveAspectRatio="xMidYMid meet">

<g transform="translate(0.000000,24.000000) scale(0.100000,-0.100000)"
fill="#000000" stroke="none">
<path d="M62 208 c-7 -7 -12 -22 -12 -34 0 -12 -7 -27 -15 -34 -22 -18 -18
-47 11 -86 25 -32 30 -34 83 -34 31 0 62 5 69 12 7 7 12 39 12 72 0 51 -4 64
-27 88 -21 22 -36 28 -68 28 -22 0 -46 -5 -53 -12z m88 -23 c0 -9 10 -20 23
-25 17 -7 7 -9 -40 -9 -61 -1 -63 0 -63 24 0 23 4 25 40 25 29 0 40 -4 40 -15z
m-72 -80 c0 -17 -6 -25 -18 -25 -12 0 -17 8 -17 25 0 17 5 25 17 25 12 0 18
-8 18 -25z m33 13 c0 -10 2 -10 6 0 8 21 23 13 23 -13 0 -20 -5 -25 -25 -25
-20 0 -25 5 -25 25 0 25 19 36 21 13z m63 -30 c7 -5 5 -8 -6 -8 -13 0 -18 7
-17 28 1 21 2 22 6 7 3 -11 10 -23 17 -27z m16 -38 c0 -6 -27 -10 -60 -10 -33
0 -60 4 -60 10 0 6 27 10 60 10 33 0 60 -4 60 -10z"/>
</g>
</svg>
